<svg width="103" height="13" viewBox="0 0 103 13" fill="none" xmlns="http://www.w3.org/2000/svg">
<path d="M10.824 6.2V10.88C10.2373 11.312 9.61067 11.6293 8.944 11.832C8.28267 12.0293 7.57333 12.128 6.816 12.128C5.872 12.128 5.016 11.9813 4.248 11.688C3.48533 11.3947 2.832 10.9867 2.288 10.464C1.74933 9.94133 1.33333 9.31733 1.04 8.592C0.746667 7.86667 0.6 7.07467 0.6 6.216C0.6 5.34667 0.741333 4.54933 1.024 3.824C1.30667 3.09867 1.70667 2.47467 2.224 1.952C2.74667 1.42933 3.37867 1.024 4.12 0.735999C4.86133 0.448 5.69333 0.304 6.616 0.304C7.08533 0.304 7.52267 0.341333 7.928 0.415999C8.33867 0.490666 8.71733 0.594666 9.064 0.728C9.416 0.855999 9.736 1.01333 10.024 1.2C10.312 1.38667 10.576 1.592 10.816 1.816L10.2 2.792C10.104 2.94667 9.97867 3.04267 9.824 3.08C9.66933 3.112 9.50133 3.072 9.32 2.96C9.144 2.85867 8.968 2.75733 8.792 2.656C8.616 2.55467 8.41867 2.46667 8.2 2.392C7.98667 2.31733 7.744 2.256 7.472 2.208C7.20533 2.16 6.896 2.136 6.544 2.136C5.97333 2.136 5.456 2.232 4.992 2.424C4.53333 2.616 4.14133 2.89067 3.816 3.248C3.49067 3.60533 3.24 4.03467 3.064 4.536C2.888 5.03733 2.8 5.59733 2.8 6.216C2.8 6.87733 2.89333 7.46933 3.08 7.992C3.272 8.50933 3.53867 8.94933 3.88 9.312C4.22667 9.66933 4.64267 9.944 5.128 10.136C5.61333 10.3227 6.15467 10.416 6.752 10.416C7.17867 10.416 7.56 10.3707 7.896 10.28C8.232 10.1893 8.56 10.0667 8.88 9.912V7.816H7.424C7.28533 7.816 7.176 7.77867 7.096 7.704C7.02133 7.624 6.984 7.528 6.984 7.416V6.2H10.824ZM15.0574 2.144V5.352H19.1054V7.008H15.0574V10.28H20.1934V12H12.8974V0.431999H20.1934V2.144H15.0574ZM30.1805 2.2H26.6925V12H24.5405V2.2H21.0525V0.431999H30.1805V2.2ZM41.2605 2.536C41.1965 2.648 41.1272 2.73067 41.0525 2.784C40.9832 2.832 40.8952 2.856 40.7885 2.856C40.6765 2.856 40.5538 2.816 40.4205 2.736C40.2925 2.65067 40.1378 2.55733 39.9565 2.456C39.7752 2.35467 39.5618 2.264 39.3165 2.184C39.0765 2.09867 38.7912 2.056 38.4605 2.056C38.1618 2.056 37.9005 2.09333 37.6765 2.168C37.4525 2.23733 37.2632 2.336 37.1085 2.464C36.9592 2.592 36.8472 2.74667 36.7725 2.928C36.6978 3.104 36.6605 3.29867 36.6605 3.512C36.6605 3.784 36.7352 4.01067 36.8845 4.192C37.0392 4.37333 37.2418 4.528 37.4925 4.656C37.7432 4.784 38.0285 4.89867 38.3485 5C38.6685 5.10133 38.9965 5.21067 39.3325 5.328C39.6685 5.44 39.9965 5.57333 40.3165 5.728C40.6365 5.87733 40.9218 6.06933 41.1725 6.304C41.4232 6.53333 41.6232 6.816 41.7725 7.152C41.9272 7.488 42.0045 7.896 42.0045 8.376C42.0045 8.89867 41.9138 9.38933 41.7325 9.848C41.5565 10.3013 41.2952 10.6987 40.9485 11.04C40.6072 11.376 40.1885 11.6427 39.6925 11.84C39.1965 12.032 38.6285 12.128 37.9885 12.128C37.6205 12.128 37.2578 12.0907 36.9005 12.016C36.5432 11.9467 36.1992 11.8453 35.8685 11.712C35.5432 11.5787 35.2365 11.4187 34.9485 11.232C34.6605 11.0453 34.4045 10.8373 34.1805 10.608L34.8125 9.576C34.8658 9.50133 34.9352 9.44 35.0205 9.392C35.1058 9.33867 35.1965 9.312 35.2925 9.312C35.4258 9.312 35.5698 9.368 35.7245 9.48C35.8792 9.58667 36.0632 9.70667 36.2765 9.84C36.4898 9.97333 36.7378 10.096 37.0205 10.208C37.3085 10.3147 37.6525 10.368 38.0525 10.368C38.6658 10.368 39.1405 10.224 39.4765 9.936C39.8125 9.64267 39.9805 9.224 39.9805 8.68C39.9805 8.376 39.9032 8.128 39.7485 7.936C39.5992 7.744 39.3992 7.584 39.1485 7.456C38.8978 7.32267 38.6125 7.21067 38.2925 7.12C37.9725 7.02933 37.6472 6.93067 37.3165 6.824C36.9858 6.71733 36.6605 6.58933 36.3405 6.44C36.0205 6.29067 35.7352 6.096 35.4845 5.856C35.2338 5.616 35.0312 5.31733 34.8765 4.96C34.7272 4.59733 34.6525 4.152 34.6525 3.624C34.6525 3.20267 34.7352 2.792 34.9005 2.392C35.0712 1.992 35.3165 1.63733 35.6365 1.328C35.9565 1.01867 36.3512 0.770666 36.8205 0.584C37.2898 0.397333 37.8285 0.304 38.4365 0.304C39.1192 0.304 39.7485 0.410666 40.3245 0.624C40.9005 0.837333 41.3912 1.136 41.7965 1.52L41.2605 2.536ZM51.9618 2.2H48.4738V12H46.3218V2.2H42.8338V0.431999H51.9618V2.2ZM58.4625 7.632L57.0545 3.784C56.9852 3.61333 56.9132 3.41067 56.8385 3.176C56.7638 2.94133 56.6892 2.688 56.6145 2.416C56.5452 2.688 56.4732 2.944 56.3985 3.184C56.3238 3.41867 56.2518 3.624 56.1825 3.8L54.7825 7.632H58.4625ZM62.2625 12H60.5985C60.4118 12 60.2598 11.9547 60.1425 11.864C60.0252 11.768 59.9372 11.6507 59.8785 11.512L59.0145 9.152H54.2225L53.3585 11.512C53.3158 11.6347 53.2332 11.7467 53.1105 11.848C52.9878 11.9493 52.8358 12 52.6545 12H50.9745L55.5265 0.431999H57.7185L62.2625 12ZM66.9559 5.936C67.3612 5.936 67.7132 5.88533 68.0119 5.784C68.3159 5.68267 68.5639 5.544 68.7559 5.368C68.9532 5.18667 69.0999 4.97333 69.1959 4.728C69.2919 4.48267 69.3399 4.21333 69.3399 3.92C69.3399 3.33333 69.1452 2.88267 68.7559 2.568C68.3719 2.25333 67.7825 2.096 66.9879 2.096H65.6119V5.936H66.9559ZM72.4919 12H70.5479C70.1799 12 69.9132 11.856 69.7479 11.568L67.3159 7.864C67.2252 7.72533 67.1239 7.62667 67.0119 7.568C66.9052 7.50933 66.7452 7.48 66.5319 7.48H65.6119V12H63.4599V0.431999H66.9879C67.7719 0.431999 68.4439 0.514666 69.0039 0.679999C69.5692 0.839999 70.0305 1.06667 70.3879 1.36C70.7505 1.65333 71.0172 2.00533 71.1879 2.416C71.3585 2.82133 71.4439 3.26933 71.4439 3.76C71.4439 4.14933 71.3852 4.51733 71.2679 4.864C71.1559 5.21067 70.9905 5.52533 70.7719 5.808C70.5585 6.09067 70.2919 6.33867 69.9719 6.552C69.6572 6.76533 69.2972 6.93333 68.8919 7.056C69.0305 7.136 69.1585 7.232 69.2759 7.344C69.3932 7.45067 69.4999 7.57867 69.5959 7.728L72.4919 12ZM81.5243 2.2H78.0363V12H75.8843V2.2H72.3963V0.431999H81.5243V2.2ZM85.198 2.144V5.352H89.246V7.008H85.198V10.28H90.334V12H83.038V0.431999H90.334V2.144H85.198ZM102.513 6.216C102.513 7.064 102.372 7.84267 102.089 8.552C101.806 9.26133 101.409 9.872 100.897 10.384C100.385 10.896 99.7691 11.2933 99.0491 11.576C98.3291 11.8587 97.5291 12 96.6491 12H92.2411V0.431999H96.6491C97.5291 0.431999 98.3291 0.575999 99.0491 0.863999C99.7691 1.14667 100.385 1.544 100.897 2.056C101.409 2.56267 101.806 3.17067 102.089 3.88C102.372 4.58933 102.513 5.368 102.513 6.216ZM100.305 6.216C100.305 5.58133 100.22 5.01333 100.049 4.512C99.8838 4.00533 99.6411 3.57867 99.3211 3.232C99.0065 2.88 98.6225 2.61067 98.1691 2.424C97.7211 2.23733 97.2145 2.144 96.6491 2.144H94.4011V10.288H96.6491C97.2145 10.288 97.7211 10.1947 98.1691 10.008C98.6225 9.82133 99.0065 9.55467 99.3211 9.208C99.6411 8.856 99.8838 8.42933 100.049 7.928C100.22 7.42133 100.305 6.85067 100.305 6.216Z" fill="#00ADEE"/>
</svg>
