<svg width="79" height="13" viewBox="0 0 79 13" fill="none" xmlns="http://www.w3.org/2000/svg">
<path d="M7.064 10.224V12H0.288V0.431999H2.44V10.224H7.064ZM13.1546 6.952C13.1546 6.696 13.1173 6.456 13.0426 6.232C12.9733 6.00267 12.8666 5.80267 12.7226 5.632C12.5786 5.46133 12.3946 5.328 12.1706 5.232C11.952 5.13067 11.696 5.08 11.4026 5.08C10.832 5.08 10.3813 5.24267 10.0506 5.568C9.72529 5.89333 9.51729 6.35467 9.42663 6.952H13.1546ZM9.38663 8.144C9.41863 8.56533 9.49329 8.93067 9.61063 9.24C9.72796 9.544 9.88263 9.79733 10.0746 10C10.2666 10.1973 10.4933 10.3467 10.7546 10.448C11.0213 10.544 11.3146 10.592 11.6346 10.592C11.9546 10.592 12.2293 10.5547 12.4586 10.48C12.6933 10.4053 12.896 10.3227 13.0666 10.232C13.2426 10.1413 13.3946 10.0587 13.5226 9.984C13.656 9.90933 13.784 9.872 13.9066 9.872C14.072 9.872 14.1946 9.93333 14.2746 10.056L14.8426 10.776C14.624 11.032 14.3786 11.248 14.1066 11.424C13.8346 11.5947 13.5493 11.7333 13.2506 11.84C12.9573 11.9413 12.656 12.0133 12.3466 12.056C12.0426 12.0987 11.7466 12.12 11.4586 12.12C10.888 12.12 10.3573 12.0267 9.86663 11.84C9.37596 11.648 8.94929 11.368 8.58663 11C8.22396 10.6267 7.93863 10.168 7.73063 9.624C7.52263 9.07467 7.41862 8.44 7.41862 7.72C7.41862 7.16 7.50929 6.63467 7.69063 6.144C7.87196 5.648 8.13063 5.21867 8.46663 4.856C8.80796 4.488 9.22129 4.19733 9.70663 3.984C10.1973 3.77067 10.7493 3.664 11.3626 3.664C11.88 3.664 12.3573 3.74667 12.7946 3.912C13.232 4.07733 13.608 4.32 13.9226 4.64C14.2373 4.95467 14.4826 5.344 14.6586 5.808C14.84 6.26667 14.9306 6.792 14.9306 7.384C14.9306 7.68267 14.8986 7.88533 14.8346 7.992C14.7706 8.09333 14.648 8.144 14.4666 8.144H9.38663ZM20.7495 8.496C20.1788 8.52267 19.6988 8.57333 19.3095 8.648C18.9202 8.71733 18.6082 8.808 18.3735 8.92C18.1388 9.032 17.9708 9.16267 17.8695 9.312C17.7682 9.46133 17.7175 9.624 17.7175 9.8C17.7175 10.1467 17.8188 10.3947 18.0215 10.544C18.2295 10.6933 18.4988 10.768 18.8295 10.768C19.2348 10.768 19.5842 10.696 19.8775 10.552C20.1762 10.4027 20.4668 10.1787 20.7495 9.88V8.496ZM16.2215 4.936C17.1655 4.072 18.3015 3.64 19.6295 3.64C20.1095 3.64 20.5388 3.72 20.9175 3.88C21.2962 4.03467 21.6162 4.25333 21.8775 4.536C22.1388 4.81333 22.3362 5.14667 22.4695 5.536C22.6082 5.92533 22.6775 6.352 22.6775 6.816V12H21.7815C21.5948 12 21.4508 11.9733 21.3495 11.92C21.2482 11.8613 21.1682 11.7467 21.1095 11.576L20.9335 10.984C20.7255 11.1707 20.5228 11.336 20.3255 11.48C20.1282 11.6187 19.9228 11.736 19.7095 11.832C19.4962 11.928 19.2668 12 19.0215 12.048C18.7815 12.1013 18.5148 12.128 18.2215 12.128C17.8748 12.128 17.5548 12.0827 17.2615 11.992C16.9682 11.896 16.7148 11.7547 16.5015 11.568C16.2882 11.3813 16.1228 11.1493 16.0055 10.872C15.8882 10.5947 15.8295 10.272 15.8295 9.904C15.8295 9.696 15.8642 9.49067 15.9335 9.288C16.0028 9.08 16.1148 8.88267 16.2695 8.696C16.4295 8.50933 16.6348 8.33333 16.8855 8.168C17.1362 8.00267 17.4428 7.85867 17.8055 7.736C18.1735 7.61333 18.6002 7.51467 19.0855 7.44C19.5708 7.36 20.1255 7.312 20.7495 7.296V6.816C20.7495 6.26667 20.6322 5.86133 20.3975 5.6C20.1628 5.33333 19.8242 5.2 19.3815 5.2C19.0615 5.2 18.7948 5.23733 18.5815 5.312C18.3735 5.38667 18.1895 5.472 18.0295 5.568C17.8695 5.65867 17.7228 5.74133 17.5895 5.816C17.4615 5.89067 17.3175 5.928 17.1575 5.928C17.0188 5.928 16.9015 5.89333 16.8055 5.824C16.7095 5.74933 16.6322 5.664 16.5735 5.568L16.2215 4.936ZM26.4025 5.216C26.6585 4.72533 26.9625 4.34133 27.3145 4.064C27.6665 3.78133 28.0825 3.64 28.5625 3.64C28.9412 3.64 29.2452 3.72267 29.4745 3.888L29.3465 5.368C29.3198 5.464 29.2798 5.53333 29.2265 5.576C29.1785 5.61333 29.1118 5.632 29.0265 5.632C28.9465 5.632 28.8265 5.61867 28.6665 5.592C28.5118 5.56533 28.3598 5.552 28.2105 5.552C27.9918 5.552 27.7972 5.584 27.6265 5.648C27.4558 5.712 27.3012 5.80533 27.1625 5.928C27.0292 6.04533 26.9092 6.18933 26.8025 6.36C26.7012 6.53067 26.6052 6.72533 26.5145 6.944V12H24.5385V3.792H25.6985C25.9012 3.792 26.0425 3.82933 26.1225 3.904C26.2025 3.97333 26.2558 4.10133 26.2825 4.288L26.4025 5.216ZM32.3553 4.8C32.5206 4.63467 32.6939 4.48267 32.8753 4.344C33.0619 4.2 33.2566 4.08 33.4593 3.984C33.6673 3.88267 33.8886 3.80533 34.1233 3.752C34.3579 3.69333 34.6139 3.664 34.8913 3.664C35.3393 3.664 35.7366 3.74133 36.0833 3.896C36.4299 4.04533 36.7179 4.25867 36.9473 4.536C37.1819 4.808 37.3579 5.136 37.4753 5.52C37.5979 5.89867 37.6593 6.31733 37.6593 6.776V12H35.6833V6.776C35.6833 6.27467 35.5686 5.888 35.3393 5.616C35.1099 5.33867 34.7606 5.2 34.2913 5.2C33.9499 5.2 33.6299 5.27733 33.3313 5.432C33.0326 5.58667 32.7499 5.79733 32.4833 6.064V12H30.5073V3.792H31.7153C31.9713 3.792 32.1393 3.912 32.2193 4.152L32.3553 4.8ZM43.4291 12V3.792H44.6371C44.8931 3.792 45.0611 3.912 45.1411 4.152L45.2691 4.76C45.4131 4.6 45.5625 4.45333 45.7171 4.32C45.8771 4.18667 46.0451 4.072 46.2211 3.976C46.4025 3.88 46.5945 3.80533 46.7971 3.752C47.0051 3.69333 47.2318 3.664 47.4771 3.664C47.9945 3.664 48.4185 3.80533 48.7491 4.088C49.0851 4.36533 49.3358 4.736 49.5011 5.2C49.6291 4.928 49.7891 4.696 49.9811 4.504C50.1731 4.30667 50.3838 4.14667 50.6131 4.024C50.8425 3.90133 51.0851 3.81067 51.3411 3.752C51.6025 3.69333 51.8638 3.664 52.1251 3.664C52.5785 3.664 52.9811 3.73333 53.3331 3.872C53.6851 4.01067 53.9811 4.21333 54.2211 4.48C54.4611 4.74667 54.6425 5.072 54.7651 5.456C54.8931 5.84 54.9571 6.28 54.9571 6.776V12H52.9811V6.776C52.9811 6.25333 52.8665 5.86133 52.6371 5.6C52.4078 5.33333 52.0718 5.2 51.6291 5.2C51.4265 5.2 51.2371 5.23467 51.0611 5.304C50.8905 5.37333 50.7385 5.47467 50.6051 5.608C50.4771 5.736 50.3758 5.89867 50.3011 6.096C50.2265 6.29333 50.1891 6.52 50.1891 6.776V12H48.2051V6.776C48.2051 6.22667 48.0931 5.82667 47.8691 5.576C47.6505 5.32533 47.3278 5.2 46.9011 5.2C46.6131 5.2 46.3438 5.272 46.0931 5.416C45.8478 5.55467 45.6185 5.74667 45.4051 5.992V12H43.4291ZM60.4674 3.664C61.0754 3.664 61.6274 3.76267 62.1234 3.96C62.6247 4.15733 63.0514 4.43733 63.4034 4.8C63.7607 5.16267 64.0354 5.60533 64.2274 6.128C64.4194 6.65067 64.5154 7.23467 64.5154 7.88C64.5154 8.53067 64.4194 9.11733 64.2274 9.64C64.0354 10.1627 63.7607 10.608 63.4034 10.976C63.0514 11.344 62.6247 11.6267 62.1234 11.824C61.6274 12.0213 61.0754 12.12 60.4674 12.12C59.854 12.12 59.2967 12.0213 58.7954 11.824C58.294 11.6267 57.8647 11.344 57.5074 10.976C57.1554 10.608 56.8807 10.1627 56.6834 9.64C56.4914 9.11733 56.3954 8.53067 56.3954 7.88C56.3954 7.23467 56.4914 6.65067 56.6834 6.128C56.8807 5.60533 57.1554 5.16267 57.5074 4.8C57.8647 4.43733 58.294 4.15733 58.7954 3.96C59.2967 3.76267 59.854 3.664 60.4674 3.664ZM60.4674 10.6C61.15 10.6 61.654 10.3707 61.9794 9.912C62.31 9.45333 62.4754 8.78133 62.4754 7.896C62.4754 7.01067 62.31 6.336 61.9794 5.872C61.654 5.408 61.15 5.176 60.4674 5.176C59.774 5.176 59.2594 5.41067 58.9234 5.88C58.5927 6.344 58.4274 7.016 58.4274 7.896C58.4274 8.776 58.5927 9.448 58.9234 9.912C59.2594 10.3707 59.774 10.6 60.4674 10.6ZM67.8869 5.216C68.1429 4.72533 68.4469 4.34133 68.7989 4.064C69.1509 3.78133 69.5669 3.64 70.0469 3.64C70.4255 3.64 70.7295 3.72267 70.9589 3.888L70.8309 5.368C70.8042 5.464 70.7642 5.53333 70.7109 5.576C70.6629 5.61333 70.5962 5.632 70.5109 5.632C70.4309 5.632 70.3109 5.61867 70.1509 5.592C69.9962 5.56533 69.8442 5.552 69.6949 5.552C69.4762 5.552 69.2815 5.584 69.1109 5.648C68.9402 5.712 68.7855 5.80533 68.6469 5.928C68.5135 6.04533 68.3935 6.18933 68.2869 6.36C68.1855 6.53067 68.0895 6.72533 67.9989 6.944V12H66.0229V3.792H67.1829C67.3855 3.792 67.5269 3.82933 67.6069 3.904C67.6869 3.97333 67.7402 4.10133 67.7669 4.288L67.8869 5.216ZM77.0453 6.952C77.0453 6.696 77.0079 6.456 76.9333 6.232C76.8639 6.00267 76.7573 5.80267 76.6133 5.632C76.4693 5.46133 76.2853 5.328 76.0613 5.232C75.8426 5.13067 75.5866 5.08 75.2933 5.08C74.7226 5.08 74.2719 5.24267 73.9413 5.568C73.6159 5.89333 73.4079 6.35467 73.3173 6.952H77.0453ZM73.2773 8.144C73.3093 8.56533 73.3839 8.93067 73.5013 9.24C73.6186 9.544 73.7733 9.79733 73.9653 10C74.1573 10.1973 74.3839 10.3467 74.6453 10.448C74.9119 10.544 75.2053 10.592 75.5253 10.592C75.8453 10.592 76.1199 10.5547 76.3493 10.48C76.5839 10.4053 76.7866 10.3227 76.9573 10.232C77.1333 10.1413 77.2853 10.0587 77.4133 9.984C77.5466 9.90933 77.6746 9.872 77.7973 9.872C77.9626 9.872 78.0853 9.93333 78.1653 10.056L78.7333 10.776C78.5146 11.032 78.2693 11.248 77.9973 11.424C77.7253 11.5947 77.4399 11.7333 77.1413 11.84C76.8479 11.9413 76.5466 12.0133 76.2373 12.056C75.9333 12.0987 75.6373 12.12 75.3493 12.12C74.7786 12.12 74.2479 12.0267 73.7573 11.84C73.2666 11.648 72.8399 11.368 72.4773 11C72.1146 10.6267 71.8293 10.168 71.6213 9.624C71.4133 9.07467 71.3092 8.44 71.3092 7.72C71.3092 7.16 71.3999 6.63467 71.5813 6.144C71.7626 5.648 72.0213 5.21867 72.3573 4.856C72.6986 4.488 73.1119 4.19733 73.5973 3.984C74.0879 3.77067 74.6399 3.664 75.2533 3.664C75.7706 3.664 76.2479 3.74667 76.6853 3.912C77.1226 4.07733 77.4986 4.32 77.8133 4.64C78.1279 4.95467 78.3733 5.344 78.5493 5.808C78.7306 6.26667 78.8212 6.792 78.8212 7.384C78.8212 7.68267 78.7893 7.88533 78.7253 7.992C78.6613 8.09333 78.5386 8.144 78.3573 8.144H73.2773Z" fill="#00ADEE"/>
</svg>
