<svg width="375" height="22" viewBox="0 0 375 22" fill="none" xmlns="http://www.w3.org/2000/svg">
<path d="M11.56 10.216C11.56 11.064 11.4187 11.8427 11.136 12.552C10.8533 13.2613 10.456 13.872 9.944 14.384C9.432 14.896 8.816 15.2933 8.096 15.576C7.376 15.8587 6.576 16 5.696 16H1.288V4.432H5.696C6.576 4.432 7.376 4.576 8.096 4.864C8.816 5.14667 9.432 5.544 9.944 6.056C10.456 6.56267 10.8533 7.17067 11.136 7.88C11.4187 8.58933 11.56 9.368 11.56 10.216ZM9.352 10.216C9.352 9.58133 9.26667 9.01333 9.096 8.512C8.93067 8.00533 8.688 7.57867 8.368 7.232C8.05333 6.88 7.66933 6.61067 7.216 6.424C6.768 6.23733 6.26133 6.144 5.696 6.144H3.448V14.288H5.696C6.26133 14.288 6.768 14.1947 7.216 14.008C7.66933 13.8213 8.05333 13.5547 8.368 13.208C8.688 12.856 8.93067 12.4293 9.096 11.928C9.26667 11.4213 9.352 10.8507 9.352 10.216ZM16.6705 7.664C17.2785 7.664 17.8305 7.76267 18.3265 7.96C18.8278 8.15733 19.2545 8.43733 19.6065 8.8C19.9638 9.16267 20.2385 9.60533 20.4305 10.128C20.6225 10.6507 20.7185 11.2347 20.7185 11.88C20.7185 12.5307 20.6225 13.1173 20.4305 13.64C20.2385 14.1627 19.9638 14.608 19.6065 14.976C19.2545 15.344 18.8278 15.6267 18.3265 15.824C17.8305 16.0213 17.2785 16.12 16.6705 16.12C16.0572 16.12 15.4998 16.0213 14.9985 15.824C14.4972 15.6267 14.0678 15.344 13.7105 14.976C13.3585 14.608 13.0838 14.1627 12.8865 13.64C12.6945 13.1173 12.5985 12.5307 12.5985 11.88C12.5985 11.2347 12.6945 10.6507 12.8865 10.128C13.0838 9.60533 13.3585 9.16267 13.7105 8.8C14.0678 8.43733 14.4972 8.15733 14.9985 7.96C15.4998 7.76267 16.0572 7.664 16.6705 7.664ZM16.6705 14.6C17.3532 14.6 17.8572 14.3707 18.1825 13.912C18.5132 13.4533 18.6785 12.7813 18.6785 11.896C18.6785 11.0107 18.5132 10.336 18.1825 9.872C17.8572 9.408 17.3532 9.176 16.6705 9.176C15.9772 9.176 15.4625 9.41067 15.1265 9.88C14.7958 10.344 14.6305 11.016 14.6305 11.896C14.6305 12.776 14.7958 13.448 15.1265 13.912C15.4625 14.3707 15.9772 14.6 16.6705 14.6ZM33.8054 7.792L31.1974 16H29.6134C29.432 16 29.3067 15.8827 29.2374 15.648L27.7654 10.904C27.7174 10.744 27.672 10.5867 27.6294 10.432C27.592 10.272 27.56 10.112 27.5334 9.952C27.5014 10.112 27.464 10.2747 27.4214 10.44C27.384 10.6 27.3414 10.76 27.2934 10.92L25.7974 15.648C25.7334 15.8827 25.592 16 25.3734 16H23.8534L21.2534 7.792H22.8294C22.9734 7.792 23.096 7.82667 23.1974 7.896C23.2987 7.96533 23.3654 8.05333 23.3974 8.16L24.5734 12.544C24.632 12.784 24.6827 13.0187 24.7254 13.248C24.7734 13.4773 24.8134 13.7067 24.8454 13.936C24.904 13.7067 24.9654 13.4773 25.0294 13.248C25.0987 13.0187 25.1707 12.784 25.2454 12.544L26.6054 8.144C26.6374 8.03733 26.6987 7.94933 26.7894 7.88C26.8854 7.81067 27 7.776 27.1334 7.776H28.0054C28.144 7.776 28.2614 7.81067 28.3574 7.88C28.4587 7.94933 28.5254 8.03733 28.5574 8.144L29.8774 12.544C29.9467 12.784 30.0107 13.0213 30.0694 13.256C30.1334 13.4853 30.1947 13.7147 30.2534 13.944C30.3227 13.4907 30.4214 13.024 30.5494 12.544L31.7574 8.16C31.7947 8.05333 31.8614 7.96533 31.9574 7.896C32.0534 7.82667 32.168 7.792 32.3014 7.792H33.8054ZM36.7771 8.8C36.9425 8.63467 37.1158 8.48267 37.2971 8.344C37.4838 8.2 37.6785 8.08 37.8811 7.984C38.0891 7.88267 38.3105 7.80533 38.5451 7.752C38.7798 7.69333 39.0358 7.664 39.3131 7.664C39.7611 7.664 40.1585 7.74133 40.5051 7.896C40.8518 8.04533 41.1398 8.25867 41.3691 8.536C41.6038 8.808 41.7798 9.136 41.8971 9.52C42.0198 9.89867 42.0811 10.3173 42.0811 10.776V16H40.1051V10.776C40.1051 10.2747 39.9905 9.888 39.7611 9.616C39.5318 9.33867 39.1825 9.2 38.7131 9.2C38.3718 9.2 38.0518 9.27733 37.7531 9.432C37.4545 9.58667 37.1718 9.79733 36.9051 10.064V16H34.9291V7.792H36.1371C36.3931 7.792 36.5611 7.912 36.6411 8.152L36.7771 8.8ZM45.9604 4.112V16H43.9844V4.112H45.9604ZM51.5611 7.664C52.1691 7.664 52.7211 7.76267 53.2171 7.96C53.7185 8.15733 54.1451 8.43733 54.4971 8.8C54.8545 9.16267 55.1291 9.60533 55.3211 10.128C55.5131 10.6507 55.6091 11.2347 55.6091 11.88C55.6091 12.5307 55.5131 13.1173 55.3211 13.64C55.1291 14.1627 54.8545 14.608 54.4971 14.976C54.1451 15.344 53.7185 15.6267 53.2171 15.824C52.7211 16.0213 52.1691 16.12 51.5611 16.12C50.9478 16.12 50.3905 16.0213 49.8891 15.824C49.3878 15.6267 48.9585 15.344 48.6011 14.976C48.2491 14.608 47.9745 14.1627 47.7771 13.64C47.5851 13.1173 47.4891 12.5307 47.4891 11.88C47.4891 11.2347 47.5851 10.6507 47.7771 10.128C47.9745 9.60533 48.2491 9.16267 48.6011 8.8C48.9585 8.43733 49.3878 8.15733 49.8891 7.96C50.3905 7.76267 50.9478 7.664 51.5611 7.664ZM51.5611 14.6C52.2438 14.6 52.7478 14.3707 53.0731 13.912C53.4038 13.4533 53.5691 12.7813 53.5691 11.896C53.5691 11.0107 53.4038 10.336 53.0731 9.872C52.7478 9.408 52.2438 9.176 51.5611 9.176C50.8678 9.176 50.3531 9.41067 50.0171 9.88C49.6865 10.344 49.5211 11.016 49.5211 11.896C49.5211 12.776 49.6865 13.448 50.0171 13.912C50.3531 14.3707 50.8678 14.6 51.5611 14.6ZM61.4526 12.496C60.882 12.5227 60.402 12.5733 60.0126 12.648C59.6233 12.7173 59.3113 12.808 59.0766 12.92C58.842 13.032 58.674 13.1627 58.5726 13.312C58.4713 13.4613 58.4206 13.624 58.4206 13.8C58.4206 14.1467 58.522 14.3947 58.7246 14.544C58.9326 14.6933 59.202 14.768 59.5326 14.768C59.938 14.768 60.2873 14.696 60.5806 14.552C60.8793 14.4027 61.17 14.1787 61.4526 13.88V12.496ZM56.9246 8.936C57.8686 8.072 59.0046 7.64 60.3326 7.64C60.8126 7.64 61.242 7.72 61.6206 7.88C61.9993 8.03467 62.3193 8.25333 62.5806 8.536C62.842 8.81333 63.0393 9.14667 63.1726 9.536C63.3113 9.92533 63.3806 10.352 63.3806 10.816V16H62.4846C62.298 16 62.154 15.9733 62.0526 15.92C61.9513 15.8613 61.8713 15.7467 61.8126 15.576L61.6366 14.984C61.4286 15.1707 61.226 15.336 61.0286 15.48C60.8313 15.6187 60.626 15.736 60.4126 15.832C60.1993 15.928 59.97 16 59.7246 16.048C59.4846 16.1013 59.218 16.128 58.9246 16.128C58.578 16.128 58.258 16.0827 57.9646 15.992C57.6713 15.896 57.418 15.7547 57.2046 15.568C56.9913 15.3813 56.826 15.1493 56.7086 14.872C56.5913 14.5947 56.5326 14.272 56.5326 13.904C56.5326 13.696 56.5673 13.4907 56.6366 13.288C56.706 13.08 56.818 12.8827 56.9726 12.696C57.1326 12.5093 57.338 12.3333 57.5886 12.168C57.8393 12.0027 58.146 11.8587 58.5086 11.736C58.8766 11.6133 59.3033 11.5147 59.7886 11.44C60.274 11.36 60.8286 11.312 61.4526 11.296V10.816C61.4526 10.2667 61.3353 9.86133 61.1006 9.6C60.866 9.33333 60.5273 9.2 60.0846 9.2C59.7646 9.2 59.498 9.23733 59.2846 9.312C59.0766 9.38667 58.8926 9.472 58.7326 9.568C58.5726 9.65867 58.426 9.74133 58.2926 9.816C58.1646 9.89067 58.0206 9.928 57.8606 9.928C57.722 9.928 57.6046 9.89333 57.5086 9.824C57.4126 9.74933 57.3353 9.664 57.2766 9.568L56.9246 8.936ZM70.3936 9.888C70.1696 9.616 69.9243 9.424 69.6576 9.312C69.3963 9.2 69.1136 9.144 68.8096 9.144C68.511 9.144 68.2416 9.2 68.0016 9.312C67.7616 9.424 67.5563 9.59467 67.3856 9.824C67.215 10.048 67.0843 10.336 66.9936 10.688C66.903 11.0347 66.8576 11.4453 66.8576 11.92C66.8576 12.4 66.895 12.808 66.9696 13.144C67.0496 13.4747 67.1616 13.7467 67.3056 13.96C67.4496 14.168 67.6256 14.32 67.8336 14.416C68.0416 14.5067 68.2736 14.552 68.5296 14.552C68.9403 14.552 69.2896 14.4667 69.5776 14.296C69.8656 14.1253 70.1376 13.8827 70.3936 13.568V9.888ZM72.3696 4.112V16H71.1616C70.9003 16 70.735 15.88 70.6656 15.64L70.4976 14.848C70.167 15.2267 69.7856 15.5333 69.3536 15.768C68.927 16.0027 68.4283 16.12 67.8576 16.12C67.4096 16.12 66.999 16.0267 66.6256 15.84C66.2523 15.6533 65.9296 15.384 65.6576 15.032C65.391 14.6747 65.183 14.2347 65.0336 13.712C64.8896 13.1893 64.8176 12.592 64.8176 11.92C64.8176 11.312 64.9003 10.7467 65.0656 10.224C65.231 9.70133 65.4683 9.248 65.7776 8.864C66.087 8.48 66.4576 8.18133 66.8896 7.968C67.3216 7.74933 67.807 7.64 68.3456 7.64C68.8043 7.64 69.1963 7.712 69.5216 7.856C69.847 8 70.1376 8.19467 70.3936 8.44V4.112H72.3696Z" fill="white"/>
<path d="M118.448 6.536C118.384 6.648 118.315 6.73067 118.24 6.784C118.171 6.832 118.083 6.856 117.976 6.856C117.864 6.856 117.741 6.816 117.608 6.736C117.48 6.65067 117.325 6.55733 117.144 6.456C116.963 6.35467 116.749 6.264 116.504 6.184C116.264 6.09867 115.979 6.056 115.648 6.056C115.349 6.056 115.088 6.09333 114.864 6.168C114.64 6.23733 114.451 6.336 114.296 6.464C114.147 6.592 114.035 6.74667 113.96 6.928C113.885 7.104 113.848 7.29867 113.848 7.512C113.848 7.784 113.923 8.01067 114.072 8.192C114.227 8.37333 114.429 8.528 114.68 8.656C114.931 8.784 115.216 8.89867 115.536 9C115.856 9.10133 116.184 9.21067 116.52 9.328C116.856 9.44 117.184 9.57333 117.504 9.728C117.824 9.87733 118.109 10.0693 118.36 10.304C118.611 10.5333 118.811 10.816 118.96 11.152C119.115 11.488 119.192 11.896 119.192 12.376C119.192 12.8987 119.101 13.3893 118.92 13.848C118.744 14.3013 118.483 14.6987 118.136 15.04C117.795 15.376 117.376 15.6427 116.88 15.84C116.384 16.032 115.816 16.128 115.176 16.128C114.808 16.128 114.445 16.0907 114.088 16.016C113.731 15.9467 113.387 15.8453 113.056 15.712C112.731 15.5787 112.424 15.4187 112.136 15.232C111.848 15.0453 111.592 14.8373 111.368 14.608L112 13.576C112.053 13.5013 112.123 13.44 112.208 13.392C112.293 13.3387 112.384 13.312 112.48 13.312C112.613 13.312 112.757 13.368 112.912 13.48C113.067 13.5867 113.251 13.7067 113.464 13.84C113.677 13.9733 113.925 14.096 114.208 14.208C114.496 14.3147 114.84 14.368 115.24 14.368C115.853 14.368 116.328 14.224 116.664 13.936C117 13.6427 117.168 13.224 117.168 12.68C117.168 12.376 117.091 12.128 116.936 11.936C116.787 11.744 116.587 11.584 116.336 11.456C116.085 11.3227 115.8 11.2107 115.48 11.12C115.16 11.0293 114.835 10.9307 114.504 10.824C114.173 10.7173 113.848 10.5893 113.528 10.44C113.208 10.2907 112.923 10.096 112.672 9.856C112.421 9.616 112.219 9.31733 112.064 8.96C111.915 8.59733 111.84 8.152 111.84 7.624C111.84 7.20267 111.923 6.792 112.088 6.392C112.259 5.992 112.504 5.63733 112.824 5.328C113.144 5.01867 113.539 4.77067 114.008 4.584C114.477 4.39733 115.016 4.304 115.624 4.304C116.307 4.304 116.936 4.41067 117.512 4.624C118.088 4.83733 118.579 5.136 118.984 5.52L118.448 6.536ZM127.689 7.792V16H126.481C126.219 16 126.054 15.88 125.985 15.64L125.849 14.984C125.513 15.3253 125.142 15.6027 124.737 15.816C124.331 16.024 123.854 16.128 123.305 16.128C122.857 16.128 122.459 16.0533 122.113 15.904C121.771 15.7493 121.483 15.5333 121.249 15.256C121.014 14.9787 120.835 14.6507 120.713 14.272C120.595 13.888 120.537 13.4667 120.537 13.008V7.792H122.513V13.008C122.513 13.5093 122.627 13.8987 122.857 14.176C123.091 14.448 123.441 14.584 123.905 14.584C124.246 14.584 124.566 14.5093 124.865 14.36C125.163 14.2053 125.446 13.9947 125.713 13.728V7.792H127.689ZM131.624 13.872C131.848 14.144 132.091 14.336 132.352 14.448C132.619 14.56 132.907 14.616 133.216 14.616C133.515 14.616 133.784 14.56 134.024 14.448C134.264 14.336 134.467 14.1653 134.632 13.936C134.803 13.7067 134.933 13.4187 135.024 13.072C135.115 12.72 135.16 12.3067 135.16 11.832C135.16 11.352 135.12 10.9467 135.04 10.616C134.965 10.28 134.856 10.008 134.712 9.8C134.568 9.592 134.392 9.44 134.184 9.344C133.981 9.248 133.749 9.2 133.488 9.2C133.077 9.2 132.728 9.288 132.44 9.464C132.152 9.63467 131.88 9.87733 131.624 10.192V13.872ZM131.52 8.912C131.856 8.53333 132.237 8.22667 132.664 7.992C133.091 7.75733 133.592 7.64 134.168 7.64C134.616 7.64 135.024 7.73333 135.392 7.92C135.765 8.10667 136.085 8.37867 136.352 8.736C136.624 9.088 136.832 9.52533 136.976 10.048C137.125 10.5653 137.2 11.16 137.2 11.832C137.2 12.4453 137.117 13.0133 136.952 13.536C136.787 14.0587 136.549 14.512 136.24 14.896C135.936 15.28 135.565 15.5813 135.128 15.8C134.696 16.0133 134.211 16.12 133.672 16.12C133.213 16.12 132.821 16.0507 132.496 15.912C132.171 15.768 131.88 15.5707 131.624 15.32V18.68H129.648V7.792H130.856C131.112 7.792 131.28 7.912 131.36 8.152L131.52 8.912ZM140.718 13.872C140.942 14.144 141.184 14.336 141.446 14.448C141.712 14.56 142 14.616 142.31 14.616C142.608 14.616 142.878 14.56 143.118 14.448C143.358 14.336 143.56 14.1653 143.726 13.936C143.896 13.7067 144.027 13.4187 144.118 13.072C144.208 12.72 144.254 12.3067 144.254 11.832C144.254 11.352 144.214 10.9467 144.134 10.616C144.059 10.28 143.95 10.008 143.806 9.8C143.662 9.592 143.486 9.44 143.278 9.344C143.075 9.248 142.843 9.2 142.582 9.2C142.171 9.2 141.822 9.288 141.534 9.464C141.246 9.63467 140.974 9.87733 140.718 10.192V13.872ZM140.614 8.912C140.95 8.53333 141.331 8.22667 141.758 7.992C142.184 7.75733 142.686 7.64 143.262 7.64C143.71 7.64 144.118 7.73333 144.486 7.92C144.859 8.10667 145.179 8.37867 145.446 8.736C145.718 9.088 145.926 9.52533 146.07 10.048C146.219 10.5653 146.294 11.16 146.294 11.832C146.294 12.4453 146.211 13.0133 146.046 13.536C145.88 14.0587 145.643 14.512 145.334 14.896C145.03 15.28 144.659 15.5813 144.222 15.8C143.79 16.0133 143.304 16.12 142.766 16.12C142.307 16.12 141.915 16.0507 141.59 15.912C141.264 15.768 140.974 15.5707 140.718 15.32V18.68H138.742V7.792H139.95C140.206 7.792 140.374 7.912 140.454 8.152L140.614 8.912ZM151.467 7.664C152.075 7.664 152.627 7.76267 153.123 7.96C153.625 8.15733 154.051 8.43733 154.403 8.8C154.761 9.16267 155.035 9.60533 155.227 10.128C155.419 10.6507 155.515 11.2347 155.515 11.88C155.515 12.5307 155.419 13.1173 155.227 13.64C155.035 14.1627 154.761 14.608 154.403 14.976C154.051 15.344 153.625 15.6267 153.123 15.824C152.627 16.0213 152.075 16.12 151.467 16.12C150.854 16.12 150.297 16.0213 149.795 15.824C149.294 15.6267 148.865 15.344 148.507 14.976C148.155 14.608 147.881 14.1627 147.683 13.64C147.491 13.1173 147.395 12.5307 147.395 11.88C147.395 11.2347 147.491 10.6507 147.683 10.128C147.881 9.60533 148.155 9.16267 148.507 8.8C148.865 8.43733 149.294 8.15733 149.795 7.96C150.297 7.76267 150.854 7.664 151.467 7.664ZM151.467 14.6C152.15 14.6 152.654 14.3707 152.979 13.912C153.31 13.4533 153.475 12.7813 153.475 11.896C153.475 11.0107 153.31 10.336 152.979 9.872C152.654 9.408 152.15 9.176 151.467 9.176C150.774 9.176 150.259 9.41067 149.923 9.88C149.593 10.344 149.427 11.016 149.427 11.896C149.427 12.776 149.593 13.448 149.923 13.912C150.259 14.3707 150.774 14.6 151.467 14.6ZM158.887 9.216C159.143 8.72533 159.447 8.34133 159.799 8.064C160.151 7.78133 160.567 7.64 161.047 7.64C161.426 7.64 161.73 7.72267 161.959 7.888L161.831 9.368C161.804 9.464 161.764 9.53333 161.711 9.576C161.663 9.61333 161.596 9.632 161.511 9.632C161.431 9.632 161.311 9.61867 161.151 9.592C160.996 9.56533 160.844 9.552 160.695 9.552C160.476 9.552 160.282 9.584 160.111 9.648C159.94 9.712 159.786 9.80533 159.647 9.928C159.514 10.0453 159.394 10.1893 159.287 10.36C159.186 10.5307 159.09 10.7253 158.999 10.944V16H157.023V7.792H158.183C158.386 7.792 158.527 7.82933 158.607 7.904C158.687 7.97333 158.74 8.10133 158.767 8.288L158.887 9.216ZM165.728 16.128C165.013 16.128 164.464 15.928 164.08 15.528C163.701 15.1227 163.512 14.5653 163.512 13.856V9.272H162.672C162.565 9.272 162.474 9.23733 162.4 9.168C162.325 9.09867 162.288 8.99467 162.288 8.856V8.072L163.608 7.856L164.024 5.616C164.05 5.50933 164.101 5.42667 164.176 5.368C164.25 5.30933 164.346 5.28 164.464 5.28H165.488V7.864H167.68V9.272H165.488V13.72C165.488 13.976 165.549 14.176 165.672 14.32C165.8 14.464 165.973 14.536 166.192 14.536C166.314 14.536 166.416 14.5227 166.496 14.496C166.581 14.464 166.653 14.432 166.712 14.4C166.776 14.368 166.832 14.3387 166.88 14.312C166.928 14.28 166.976 14.264 167.024 14.264C167.082 14.264 167.13 14.28 167.168 14.312C167.205 14.3387 167.245 14.3813 167.288 14.44L167.88 15.4C167.592 15.64 167.261 15.8213 166.888 15.944C166.514 16.0667 166.128 16.128 165.728 16.128Z" fill="white"/>
<path d="M215.56 10.216C215.56 11.064 215.419 11.8427 215.136 12.552C214.853 13.2613 214.456 13.872 213.944 14.384C213.432 14.896 212.816 15.2933 212.096 15.576C211.376 15.8587 210.576 16 209.696 16H205.288V4.432H209.696C210.576 4.432 211.376 4.576 212.096 4.864C212.816 5.14667 213.432 5.544 213.944 6.056C214.456 6.56267 214.853 7.17067 215.136 7.88C215.419 8.58933 215.56 9.368 215.56 10.216ZM213.352 10.216C213.352 9.58133 213.267 9.01333 213.096 8.512C212.931 8.00533 212.688 7.57867 212.368 7.232C212.053 6.88 211.669 6.61067 211.216 6.424C210.768 6.23733 210.261 6.144 209.696 6.144H207.448V14.288H209.696C210.261 14.288 210.768 14.1947 211.216 14.008C211.669 13.8213 212.053 13.5547 212.368 13.208C212.688 12.856 212.931 12.4293 213.096 11.928C213.267 11.4213 213.352 10.8507 213.352 10.216ZM222.327 10.952C222.327 10.696 222.289 10.456 222.215 10.232C222.145 10.0027 222.039 9.80267 221.895 9.632C221.751 9.46133 221.567 9.328 221.343 9.232C221.124 9.13067 220.868 9.08 220.575 9.08C220.004 9.08 219.553 9.24267 219.223 9.568C218.897 9.89333 218.689 10.3547 218.599 10.952H222.327ZM218.559 12.144C218.591 12.5653 218.665 12.9307 218.783 13.24C218.9 13.544 219.055 13.7973 219.247 14C219.439 14.1973 219.665 14.3467 219.927 14.448C220.193 14.544 220.487 14.592 220.807 14.592C221.127 14.592 221.401 14.5547 221.631 14.48C221.865 14.4053 222.068 14.3227 222.239 14.232C222.415 14.1413 222.567 14.0587 222.695 13.984C222.828 13.9093 222.956 13.872 223.079 13.872C223.244 13.872 223.367 13.9333 223.447 14.056L224.015 14.776C223.796 15.032 223.551 15.248 223.279 15.424C223.007 15.5947 222.721 15.7333 222.423 15.84C222.129 15.9413 221.828 16.0133 221.519 16.056C221.215 16.0987 220.919 16.12 220.631 16.12C220.06 16.12 219.529 16.0267 219.039 15.84C218.548 15.648 218.121 15.368 217.759 15C217.396 14.6267 217.111 14.168 216.903 13.624C216.695 13.0747 216.59 12.44 216.59 11.72C216.59 11.16 216.681 10.6347 216.863 10.144C217.044 9.648 217.303 9.21867 217.639 8.856C217.98 8.488 218.393 8.19733 218.879 7.984C219.369 7.77067 219.921 7.664 220.535 7.664C221.052 7.664 221.529 7.74667 221.967 7.912C222.404 8.07733 222.78 8.32 223.095 8.64C223.409 8.95467 223.655 9.344 223.831 9.808C224.012 10.2667 224.102 10.792 224.102 11.384C224.102 11.6827 224.071 11.8853 224.007 11.992C223.943 12.0933 223.82 12.144 223.639 12.144H218.559ZM232.782 7.792L229.526 16H227.734L224.478 7.792H226.11C226.26 7.792 226.382 7.82667 226.478 7.896C226.58 7.96533 226.646 8.05333 226.678 8.16L228.262 12.544C228.348 12.8 228.422 13.0507 228.486 13.296C228.55 13.5413 228.606 13.7867 228.654 14.032C228.708 13.7867 228.766 13.5413 228.83 13.296C228.894 13.0507 228.972 12.8 229.062 12.544L230.678 8.16C230.716 8.05333 230.782 7.96533 230.878 7.896C230.974 7.82667 231.089 7.792 231.222 7.792H232.782ZM238.873 10.952C238.873 10.696 238.836 10.456 238.761 10.232C238.692 10.0027 238.585 9.80267 238.441 9.632C238.297 9.46133 238.113 9.328 237.889 9.232C237.671 9.13067 237.415 9.08 237.121 9.08C236.551 9.08 236.1 9.24267 235.769 9.568C235.444 9.89333 235.236 10.3547 235.145 10.952H238.873ZM235.105 12.144C235.137 12.5653 235.212 12.9307 235.329 13.24C235.447 13.544 235.601 13.7973 235.793 14C235.985 14.1973 236.212 14.3467 236.473 14.448C236.74 14.544 237.033 14.592 237.353 14.592C237.673 14.592 237.948 14.5547 238.177 14.48C238.412 14.4053 238.615 14.3227 238.785 14.232C238.961 14.1413 239.113 14.0587 239.241 13.984C239.375 13.9093 239.503 13.872 239.625 13.872C239.791 13.872 239.913 13.9333 239.993 14.056L240.561 14.776C240.343 15.032 240.097 15.248 239.825 15.424C239.553 15.5947 239.268 15.7333 238.969 15.84C238.676 15.9413 238.375 16.0133 238.065 16.056C237.761 16.0987 237.465 16.12 237.177 16.12C236.607 16.12 236.076 16.0267 235.585 15.84C235.095 15.648 234.668 15.368 234.305 15C233.943 14.6267 233.657 14.168 233.449 13.624C233.241 13.0747 233.137 12.44 233.137 11.72C233.137 11.16 233.228 10.6347 233.409 10.144C233.591 9.648 233.849 9.21867 234.185 8.856C234.527 8.488 234.94 8.19733 235.425 7.984C235.916 7.77067 236.468 7.664 237.081 7.664C237.599 7.664 238.076 7.74667 238.513 7.912C238.951 8.07733 239.327 8.32 239.641 8.64C239.956 8.95467 240.201 9.344 240.377 9.808C240.559 10.2667 240.649 10.792 240.649 11.384C240.649 11.6827 240.617 11.8853 240.553 11.992C240.489 12.0933 240.367 12.144 240.185 12.144H235.105ZM244.132 4.112V16H242.156V4.112H244.132ZM249.733 7.664C250.341 7.664 250.893 7.76267 251.389 7.96C251.89 8.15733 252.317 8.43733 252.669 8.8C253.026 9.16267 253.301 9.60533 253.493 10.128C253.685 10.6507 253.781 11.2347 253.781 11.88C253.781 12.5307 253.685 13.1173 253.493 13.64C253.301 14.1627 253.026 14.608 252.669 14.976C252.317 15.344 251.89 15.6267 251.389 15.824C250.893 16.0213 250.341 16.12 249.733 16.12C249.12 16.12 248.562 16.0213 248.061 15.824C247.56 15.6267 247.13 15.344 246.773 14.976C246.421 14.608 246.146 14.1627 245.949 13.64C245.757 13.1173 245.661 12.5307 245.661 11.88C245.661 11.2347 245.757 10.6507 245.949 10.128C246.146 9.60533 246.421 9.16267 246.773 8.8C247.13 8.43733 247.56 8.15733 248.061 7.96C248.562 7.76267 249.12 7.664 249.733 7.664ZM249.733 14.6C250.416 14.6 250.92 14.3707 251.245 13.912C251.576 13.4533 251.741 12.7813 251.741 11.896C251.741 11.0107 251.576 10.336 251.245 9.872C250.92 9.408 250.416 9.176 249.733 9.176C249.04 9.176 248.525 9.41067 248.189 9.88C247.858 10.344 247.693 11.016 247.693 11.896C247.693 12.776 247.858 13.448 248.189 13.912C248.525 14.3707 249.04 14.6 249.733 14.6ZM257.265 13.872C257.489 14.144 257.731 14.336 257.993 14.448C258.259 14.56 258.547 14.616 258.857 14.616C259.155 14.616 259.425 14.56 259.665 14.448C259.905 14.336 260.107 14.1653 260.273 13.936C260.443 13.7067 260.574 13.4187 260.665 13.072C260.755 12.72 260.801 12.3067 260.801 11.832C260.801 11.352 260.761 10.9467 260.681 10.616C260.606 10.28 260.497 10.008 260.353 9.8C260.209 9.592 260.033 9.44 259.825 9.344C259.622 9.248 259.39 9.2 259.129 9.2C258.718 9.2 258.369 9.288 258.081 9.464C257.793 9.63467 257.521 9.87733 257.265 10.192V13.872ZM257.161 8.912C257.497 8.53333 257.878 8.22667 258.305 7.992C258.731 7.75733 259.233 7.64 259.809 7.64C260.257 7.64 260.665 7.73333 261.033 7.92C261.406 8.10667 261.726 8.37867 261.993 8.736C262.265 9.088 262.473 9.52533 262.617 10.048C262.766 10.5653 262.841 11.16 262.841 11.832C262.841 12.4453 262.758 13.0133 262.593 13.536C262.427 14.0587 262.19 14.512 261.881 14.896C261.577 15.28 261.206 15.5813 260.769 15.8C260.337 16.0133 259.851 16.12 259.312 16.12C258.854 16.12 258.462 16.0507 258.137 15.912C257.811 15.768 257.521 15.5707 257.265 15.32V18.68H255.289V7.792H256.497C256.753 7.792 256.921 7.912 257.001 8.152L257.161 8.912ZM269.67 10.952C269.67 10.696 269.633 10.456 269.558 10.232C269.489 10.0027 269.382 9.80267 269.238 9.632C269.094 9.46133 268.91 9.328 268.686 9.232C268.468 9.13067 268.212 9.08 267.918 9.08C267.348 9.08 266.897 9.24267 266.566 9.568C266.241 9.89333 266.033 10.3547 265.942 10.952H269.67ZM265.902 12.144C265.934 12.5653 266.009 12.9307 266.126 13.24C266.244 13.544 266.398 13.7973 266.59 14C266.782 14.1973 267.009 14.3467 267.27 14.448C267.537 14.544 267.83 14.592 268.15 14.592C268.47 14.592 268.745 14.5547 268.974 14.48C269.209 14.4053 269.412 14.3227 269.582 14.232C269.758 14.1413 269.91 14.0587 270.038 13.984C270.172 13.9093 270.3 13.872 270.422 13.872C270.588 13.872 270.71 13.9333 270.79 14.056L271.358 14.776C271.14 15.032 270.894 15.248 270.622 15.424C270.35 15.5947 270.065 15.7333 269.766 15.84C269.473 15.9413 269.172 16.0133 268.862 16.056C268.558 16.0987 268.262 16.12 267.974 16.12C267.404 16.12 266.873 16.0267 266.382 15.84C265.892 15.648 265.465 15.368 265.102 15C264.74 14.6267 264.454 14.168 264.246 13.624C264.038 13.0747 263.934 12.44 263.934 11.72C263.934 11.16 264.025 10.6347 264.206 10.144C264.388 9.648 264.646 9.21867 264.982 8.856C265.324 8.488 265.737 8.19733 266.222 7.984C266.713 7.77067 267.265 7.664 267.878 7.664C268.396 7.664 268.873 7.74667 269.31 7.912C269.748 8.07733 270.124 8.32 270.438 8.64C270.753 8.95467 270.998 9.344 271.174 9.808C271.356 10.2667 271.446 10.792 271.446 11.384C271.446 11.6827 271.414 11.8853 271.35 11.992C271.286 12.0933 271.164 12.144 270.982 12.144H265.902ZM274.793 9.216C275.049 8.72533 275.353 8.34133 275.705 8.064C276.057 7.78133 276.473 7.64 276.953 7.64C277.332 7.64 277.636 7.72267 277.865 7.888L277.737 9.368C277.71 9.464 277.67 9.53333 277.617 9.576C277.569 9.61333 277.502 9.632 277.417 9.632C277.337 9.632 277.217 9.61867 277.057 9.592C276.902 9.56533 276.75 9.552 276.601 9.552C276.382 9.552 276.188 9.584 276.017 9.648C275.846 9.712 275.692 9.80533 275.553 9.928C275.42 10.0453 275.3 10.1893 275.193 10.36C275.092 10.5307 274.996 10.7253 274.905 10.944V16H272.929V7.792H274.089C274.292 7.792 274.433 7.82933 274.513 7.904C274.593 7.97333 274.646 8.10133 274.673 8.288L274.793 9.216ZM283.875 9.392C283.821 9.47733 283.765 9.53867 283.707 9.576C283.648 9.608 283.573 9.624 283.483 9.624C283.387 9.624 283.283 9.59733 283.171 9.544C283.064 9.49067 282.939 9.432 282.795 9.368C282.651 9.29867 282.485 9.23733 282.299 9.184C282.117 9.13067 281.901 9.104 281.651 9.104C281.261 9.104 280.955 9.18667 280.731 9.352C280.512 9.51733 280.403 9.73333 280.403 10C280.403 10.176 280.459 10.3253 280.571 10.448C280.688 10.5653 280.84 10.6693 281.027 10.76C281.219 10.8507 281.435 10.9333 281.675 11.008C281.915 11.0773 282.157 11.1547 282.403 11.24C282.653 11.3253 282.899 11.424 283.139 11.536C283.379 11.6427 283.592 11.7813 283.779 11.952C283.971 12.1173 284.123 12.3173 284.235 12.552C284.352 12.7867 284.411 13.0693 284.411 13.4C284.411 13.7947 284.339 14.16 284.195 14.496C284.056 14.8267 283.848 15.1147 283.571 15.36C283.293 15.6 282.949 15.7893 282.539 15.928C282.133 16.0613 281.664 16.128 281.131 16.128C280.848 16.128 280.571 16.1013 280.299 16.048C280.032 16 279.773 15.9307 279.523 15.84C279.277 15.7493 279.048 15.6427 278.835 15.52C278.627 15.3973 278.443 15.264 278.283 15.12L278.739 14.368C278.797 14.2773 278.867 14.208 278.947 14.16C279.027 14.112 279.128 14.088 279.251 14.088C279.373 14.088 279.488 14.1227 279.595 14.192C279.707 14.2613 279.835 14.336 279.979 14.416C280.123 14.496 280.291 14.5707 280.483 14.64C280.68 14.7093 280.928 14.744 281.227 14.744C281.461 14.744 281.661 14.7173 281.827 14.664C281.997 14.6053 282.136 14.5307 282.243 14.44C282.355 14.3493 282.435 14.2453 282.483 14.128C282.536 14.0053 282.563 13.88 282.563 13.752C282.563 13.56 282.504 13.4027 282.387 13.28C282.275 13.1573 282.123 13.0507 281.931 12.96C281.744 12.8693 281.528 12.7893 281.283 12.72C281.043 12.6453 280.795 12.5653 280.539 12.48C280.288 12.3947 280.04 12.296 279.795 12.184C279.555 12.0667 279.339 11.92 279.147 11.744C278.96 11.568 278.808 11.352 278.691 11.096C278.579 10.84 278.523 10.5307 278.523 10.168C278.523 9.832 278.589 9.512 278.723 9.208C278.856 8.904 279.051 8.64 279.307 8.416C279.568 8.18667 279.891 8.00533 280.275 7.872C280.664 7.73333 281.112 7.664 281.619 7.664C282.184 7.664 282.699 7.75733 283.163 7.944C283.627 8.13067 284.013 8.376 284.323 8.68L283.875 9.392Z" fill="white"/>
<path d="M327.048 10.248C327.443 10.248 327.787 10.2 328.08 10.104C328.373 10.0027 328.616 9.86133 328.808 9.68C329.005 9.49333 329.152 9.26933 329.248 9.008C329.344 8.74133 329.392 8.44533 329.392 8.12C329.392 7.81067 329.344 7.53067 329.248 7.28C329.152 7.02933 329.008 6.816 328.816 6.64C328.624 6.464 328.381 6.33067 328.088 6.24C327.795 6.144 327.448 6.096 327.048 6.096H325.44V10.248H327.048ZM327.048 4.432C327.821 4.432 328.491 4.52267 329.056 4.704C329.621 4.88533 330.088 5.13867 330.456 5.464C330.824 5.78933 331.096 6.17867 331.272 6.632C331.453 7.08533 331.544 7.58133 331.544 8.12C331.544 8.68 331.451 9.19467 331.264 9.664C331.077 10.128 330.797 10.528 330.424 10.864C330.051 11.2 329.581 11.4613 329.016 11.648C328.456 11.8347 327.8 11.928 327.048 11.928H325.44V16H323.288V4.432H327.048ZM334.621 9.216C334.877 8.72533 335.181 8.34133 335.533 8.064C335.885 7.78133 336.301 7.64 336.781 7.64C337.16 7.64 337.464 7.72267 337.693 7.888L337.565 9.368C337.539 9.464 337.499 9.53333 337.445 9.576C337.397 9.61333 337.331 9.632 337.245 9.632C337.165 9.632 337.045 9.61867 336.885 9.592C336.731 9.56533 336.579 9.552 336.429 9.552C336.211 9.552 336.016 9.584 335.845 9.648C335.675 9.712 335.52 9.80533 335.381 9.928C335.248 10.0453 335.128 10.1893 335.021 10.36C334.92 10.5307 334.824 10.7253 334.733 10.944V16H332.757V7.792H333.917C334.12 7.792 334.261 7.82933 334.341 7.904C334.421 7.97333 334.475 8.10133 334.501 8.288L334.621 9.216ZM340.774 7.792V16H338.79V7.792H340.774ZM341.046 5.4C341.046 5.57067 341.011 5.73067 340.942 5.88C340.873 6.02933 340.779 6.16 340.662 6.272C340.55 6.384 340.417 6.47467 340.262 6.544C340.107 6.608 339.942 6.64 339.766 6.64C339.595 6.64 339.433 6.608 339.278 6.544C339.129 6.47467 338.998 6.384 338.886 6.272C338.774 6.16 338.683 6.02933 338.614 5.88C338.55 5.73067 338.518 5.57067 338.518 5.4C338.518 5.224 338.55 5.05867 338.614 4.904C338.683 4.74933 338.774 4.616 338.886 4.504C338.998 4.392 339.129 4.304 339.278 4.24C339.433 4.17067 339.595 4.136 339.766 4.136C339.942 4.136 340.107 4.17067 340.262 4.24C340.417 4.304 340.55 4.392 340.662 4.504C340.779 4.616 340.873 4.74933 340.942 4.904C341.011 5.05867 341.046 5.224 341.046 5.4ZM350.189 7.792L346.933 16H345.141L341.885 7.792H343.517C343.666 7.792 343.789 7.82667 343.885 7.896C343.986 7.96533 344.053 8.05333 344.085 8.16L345.669 12.544C345.754 12.8 345.829 13.0507 345.893 13.296C345.957 13.5413 346.013 13.7867 346.061 14.032C346.114 13.7867 346.173 13.5413 346.237 13.296C346.301 13.0507 346.378 12.8 346.469 12.544L348.085 8.16C348.122 8.05333 348.189 7.96533 348.285 7.896C348.381 7.82667 348.495 7.792 348.629 7.792H350.189ZM355.375 12.496C354.804 12.5227 354.324 12.5733 353.935 12.648C353.545 12.7173 353.233 12.808 352.999 12.92C352.764 13.032 352.596 13.1627 352.495 13.312C352.393 13.4613 352.343 13.624 352.343 13.8C352.343 14.1467 352.444 14.3947 352.647 14.544C352.855 14.6933 353.124 14.768 353.455 14.768C353.86 14.768 354.209 14.696 354.503 14.552C354.801 14.4027 355.092 14.1787 355.375 13.88V12.496ZM350.847 8.936C351.791 8.072 352.927 7.64 354.255 7.64C354.735 7.64 355.164 7.72 355.543 7.88C355.921 8.03467 356.241 8.25333 356.503 8.536C356.764 8.81333 356.961 9.14667 357.095 9.536C357.233 9.92533 357.303 10.352 357.303 10.816V16H356.407C356.22 16 356.076 15.9733 355.975 15.92C355.873 15.8613 355.793 15.7467 355.735 15.576L355.559 14.984C355.351 15.1707 355.148 15.336 354.951 15.48C354.753 15.6187 354.548 15.736 354.335 15.832C354.121 15.928 353.892 16 353.647 16.048C353.407 16.1013 353.14 16.128 352.847 16.128C352.5 16.128 352.18 16.0827 351.887 15.992C351.593 15.896 351.34 15.7547 351.127 15.568C350.913 15.3813 350.748 15.1493 350.631 14.872C350.513 14.5947 350.455 14.272 350.455 13.904C350.455 13.696 350.489 13.4907 350.559 13.288C350.628 13.08 350.74 12.8827 350.895 12.696C351.055 12.5093 351.26 12.3333 351.511 12.168C351.761 12.0027 352.068 11.8587 352.431 11.736C352.799 11.6133 353.225 11.5147 353.711 11.44C354.196 11.36 354.751 11.312 355.375 11.296V10.816C355.375 10.2667 355.257 9.86133 355.023 9.6C354.788 9.33333 354.449 9.2 354.007 9.2C353.687 9.2 353.42 9.23733 353.207 9.312C352.999 9.38667 352.815 9.472 352.655 9.568C352.495 9.65867 352.348 9.74133 352.215 9.816C352.087 9.89067 351.943 9.928 351.783 9.928C351.644 9.928 351.527 9.89333 351.431 9.824C351.335 9.74933 351.257 9.664 351.199 9.568L350.847 8.936ZM365.044 9.528C364.985 9.60267 364.926 9.66133 364.868 9.704C364.814 9.74667 364.734 9.768 364.628 9.768C364.526 9.768 364.428 9.73867 364.332 9.68C364.236 9.616 364.121 9.54667 363.988 9.472C363.854 9.392 363.694 9.32267 363.508 9.264C363.326 9.2 363.1 9.168 362.828 9.168C362.481 9.168 362.177 9.232 361.916 9.36C361.654 9.48267 361.436 9.66133 361.26 9.896C361.089 10.1307 360.961 10.416 360.876 10.752C360.79 11.0827 360.748 11.4587 360.748 11.88C360.748 12.3173 360.793 12.7067 360.884 13.048C360.98 13.3893 361.116 13.6773 361.292 13.912C361.468 14.1413 361.681 14.3173 361.932 14.44C362.182 14.5573 362.465 14.616 362.78 14.616C363.094 14.616 363.348 14.5787 363.54 14.504C363.737 14.424 363.902 14.3387 364.036 14.248C364.169 14.152 364.284 14.0667 364.38 13.992C364.481 13.912 364.593 13.872 364.716 13.872C364.876 13.872 364.996 13.9333 365.076 14.056L365.644 14.776C365.425 15.032 365.188 15.248 364.932 15.424C364.676 15.5947 364.409 15.7333 364.132 15.84C363.86 15.9413 363.577 16.0133 363.284 16.056C362.996 16.0987 362.708 16.12 362.42 16.12C361.913 16.12 361.436 16.0267 360.988 15.84C360.54 15.648 360.148 15.3707 359.812 15.008C359.476 14.6453 359.209 14.2027 359.012 13.68C358.82 13.152 358.724 12.552 358.724 11.88C358.724 11.2773 358.809 10.72 358.98 10.208C359.156 9.69067 359.412 9.24533 359.748 8.872C360.084 8.49333 360.5 8.19733 360.996 7.984C361.492 7.77067 362.062 7.664 362.707 7.664C363.321 7.664 363.857 7.76267 364.316 7.96C364.78 8.15733 365.196 8.44 365.564 8.808L365.044 9.528ZM374.338 7.792L369.866 18.256C369.808 18.3947 369.73 18.4987 369.634 18.568C369.544 18.6427 369.402 18.68 369.21 18.68H367.738L369.274 15.384L365.954 7.792H367.69C367.845 7.792 367.965 7.82933 368.05 7.904C368.141 7.97867 368.208 8.064 368.25 8.16L369.994 12.416C370.053 12.56 370.101 12.704 370.138 12.848C370.181 12.992 370.221 13.1387 370.258 13.288C370.306 13.1387 370.354 12.992 370.402 12.848C370.45 12.6987 370.504 12.552 370.562 12.408L372.21 8.16C372.253 8.05333 372.322 7.96533 372.418 7.896C372.52 7.82667 372.632 7.792 372.754 7.792H374.338Z" fill="white"/>
</svg>
