<svg width="113" height="13" viewBox="0 0 113 13" fill="none" xmlns="http://www.w3.org/2000/svg">
<path d="M16.68 0.431999L13.088 12H11.144L8.616 4.096C8.54667 3.904 8.48267 3.66933 8.424 3.392C8.392 3.52533 8.36 3.65067 8.328 3.768C8.296 3.88533 8.26133 3.99467 8.224 4.096L5.672 12H3.72L0.136 0.431999H1.936C2.12267 0.431999 2.27733 0.477333 2.4 0.568C2.528 0.653333 2.61333 0.770666 2.656 0.919999L4.624 7.84C4.66667 8.01067 4.70667 8.19733 4.744 8.4C4.78667 8.59733 4.82933 8.80533 4.872 9.024C4.91467 8.8 4.96 8.58933 5.008 8.392C5.06133 8.19467 5.11733 8.01067 5.176 7.84L7.448 0.919999C7.49067 0.797332 7.57333 0.685333 7.696 0.584C7.824 0.482666 7.97867 0.431999 8.16 0.431999H8.792C8.97867 0.431999 9.13067 0.477333 9.248 0.568C9.36533 0.658666 9.45333 0.775999 9.512 0.919999L11.776 7.84C11.888 8.17067 11.9893 8.552 12.08 8.984C12.1493 8.56267 12.2267 8.18133 12.312 7.84L14.28 0.919999C14.312 0.786666 14.392 0.671999 14.52 0.575999C14.6533 0.479999 14.8107 0.431999 14.992 0.431999H16.68ZM27.8525 0.431999V12H25.6925V6.944H20.2605V12H18.1005V0.431999H20.2605V5.408H25.6925V0.431999H27.8525ZM36.5406 7.632L35.1326 3.784C35.0633 3.61333 34.9913 3.41067 34.9166 3.176C34.842 2.94133 34.7673 2.688 34.6926 2.416C34.6233 2.688 34.5513 2.944 34.4766 3.184C34.402 3.41867 34.33 3.624 34.2606 3.8L32.8606 7.632H36.5406ZM40.3406 12H38.6766C38.49 12 38.338 11.9547 38.2206 11.864C38.1033 11.768 38.0153 11.6507 37.9566 11.512L37.0926 9.152H32.3006L31.4366 11.512C31.394 11.6347 31.3113 11.7467 31.1886 11.848C31.066 11.9493 30.914 12 30.7326 12H29.0526L33.6046 0.431999H35.7966L40.3406 12ZM48.493 2.2H45.005V12H42.853V2.2H39.365V0.431999H48.493V2.2ZM55.573 12H53.413V0.431999H55.573V12ZM66.243 2.2H62.755V12H60.603V2.2H57.115V0.431999H66.243V2.2ZM81.435 6.216C81.435 7.064 81.2937 7.84267 81.011 8.552C80.7283 9.26133 80.331 9.872 79.819 10.384C79.307 10.896 78.691 11.2933 77.971 11.576C77.251 11.8587 76.451 12 75.571 12H71.163V0.431999H75.571C76.451 0.431999 77.251 0.575999 77.971 0.863999C78.691 1.14667 79.307 1.544 79.819 2.056C80.331 2.56267 80.7283 3.17067 81.011 3.88C81.2937 4.58933 81.435 5.368 81.435 6.216ZM79.227 6.216C79.227 5.58133 79.1417 5.01333 78.971 4.512C78.8057 4.00533 78.563 3.57867 78.243 3.232C77.9283 2.88 77.5443 2.61067 77.091 2.424C76.643 2.23733 76.1363 2.144 75.571 2.144H73.323V10.288H75.571C76.1363 10.288 76.643 10.1947 77.091 10.008C77.5443 9.82133 77.9283 9.55467 78.243 9.208C78.563 8.856 78.8057 8.42933 78.971 7.928C79.1417 7.42133 79.227 6.85067 79.227 6.216ZM94.3669 6.216C94.3669 7.064 94.2255 7.85067 93.9429 8.576C93.6655 9.296 93.2709 9.92 92.7589 10.448C92.2469 10.976 91.6309 11.3893 90.9109 11.688C90.1909 11.9813 89.3909 12.128 88.5109 12.128C87.6362 12.128 86.8389 11.9813 86.1189 11.688C85.3989 11.3893 84.7802 10.976 84.2629 10.448C83.7509 9.92 83.3535 9.296 83.0709 8.576C82.7882 7.85067 82.6469 7.064 82.6469 6.216C82.6469 5.368 82.7882 4.584 83.0709 3.864C83.3535 3.13867 83.7509 2.512 84.2629 1.984C84.7802 1.456 85.3989 1.04533 86.1189 0.752C86.8389 0.453333 87.6362 0.304 88.5109 0.304C89.0975 0.304 89.6495 0.373333 90.1669 0.511999C90.6842 0.645333 91.1589 0.837333 91.5909 1.088C92.0229 1.33333 92.4095 1.63467 92.7509 1.992C93.0975 2.344 93.3909 2.73867 93.6309 3.176C93.8709 3.61333 94.0522 4.088 94.1749 4.6C94.3029 5.112 94.3669 5.65067 94.3669 6.216ZM92.1669 6.216C92.1669 5.58133 92.0815 5.01333 91.9109 4.512C91.7402 4.00533 91.4975 3.576 91.1829 3.224C90.8682 2.872 90.4842 2.60267 90.0309 2.416C89.5829 2.22933 89.0762 2.136 88.5109 2.136C87.9455 2.136 87.4362 2.22933 86.9829 2.416C86.5349 2.60267 86.1509 2.872 85.8309 3.224C85.5162 3.576 85.2735 4.00533 85.1029 4.512C84.9322 5.01333 84.8469 5.58133 84.8469 6.216C84.8469 6.85067 84.9322 7.42133 85.1029 7.928C85.2735 8.42933 85.5162 8.856 85.8309 9.208C86.1509 9.55467 86.5349 9.82133 86.9829 10.008C87.4362 10.1947 87.9455 10.288 88.5109 10.288C89.0762 10.288 89.5829 10.1947 90.0309 10.008C90.4842 9.82133 90.8682 9.55467 91.1829 9.208C91.4975 8.856 91.7402 8.42933 91.9109 7.928C92.0815 7.42133 92.1669 6.85067 92.1669 6.216ZM98.4168 2.144V5.352H102.465V7.008H98.4168V10.28H103.553V12H96.2568V0.431999H103.553V2.144H98.4168ZM111.62 2.536C111.556 2.648 111.487 2.73067 111.412 2.784C111.343 2.832 111.255 2.856 111.148 2.856C111.036 2.856 110.913 2.816 110.78 2.736C110.652 2.65067 110.497 2.55733 110.316 2.456C110.135 2.35467 109.921 2.264 109.676 2.184C109.436 2.09867 109.151 2.056 108.82 2.056C108.521 2.056 108.26 2.09333 108.036 2.168C107.812 2.23733 107.623 2.336 107.468 2.464C107.319 2.592 107.207 2.74667 107.132 2.928C107.057 3.104 107.02 3.29867 107.02 3.512C107.02 3.784 107.095 4.01067 107.244 4.192C107.399 4.37333 107.601 4.528 107.852 4.656C108.103 4.784 108.388 4.89867 108.708 5C109.028 5.10133 109.356 5.21067 109.692 5.328C110.028 5.44 110.356 5.57333 110.676 5.728C110.996 5.87733 111.281 6.06933 111.532 6.304C111.783 6.53333 111.983 6.816 112.132 7.152C112.287 7.488 112.364 7.896 112.364 8.376C112.364 8.89867 112.273 9.38933 112.092 9.848C111.916 10.3013 111.655 10.6987 111.308 11.04C110.967 11.376 110.548 11.6427 110.052 11.84C109.556 12.032 108.988 12.128 108.348 12.128C107.98 12.128 107.617 12.0907 107.26 12.016C106.903 11.9467 106.559 11.8453 106.228 11.712C105.903 11.5787 105.596 11.4187 105.308 11.232C105.02 11.0453 104.764 10.8373 104.54 10.608L105.172 9.576C105.225 9.50133 105.295 9.44 105.38 9.392C105.465 9.33867 105.556 9.312 105.652 9.312C105.785 9.312 105.929 9.368 106.084 9.48C106.239 9.58667 106.423 9.70667 106.636 9.84C106.849 9.97333 107.097 10.096 107.38 10.208C107.668 10.3147 108.012 10.368 108.412 10.368C109.025 10.368 109.5 10.224 109.836 9.936C110.172 9.64267 110.34 9.224 110.34 8.68C110.34 8.376 110.263 8.128 110.108 7.936C109.959 7.744 109.759 7.584 109.508 7.456C109.257 7.32267 108.972 7.21067 108.652 7.12C108.332 7.02933 108.007 6.93067 107.676 6.824C107.345 6.71733 107.02 6.58933 106.7 6.44C106.38 6.29067 106.095 6.096 105.844 5.856C105.593 5.616 105.391 5.31733 105.236 4.96C105.087 4.59733 105.012 4.152 105.012 3.624C105.012 3.20267 105.095 2.792 105.26 2.392C105.431 1.992 105.676 1.63733 105.996 1.328C106.316 1.01867 106.711 0.770666 107.18 0.584C107.649 0.397333 108.188 0.304 108.796 0.304C109.479 0.304 110.108 0.410666 110.684 0.624C111.26 0.837333 111.751 1.136 112.156 1.52L111.62 2.536Z" fill="#00ADEE"/>
</svg>
